<svg width="95" height="195" viewBox="0 0 95 195" fill="none" xmlns="http://www.w3.org/2000/svg">
<g id="Crumbs">
<g id="Group">
<path id="Vector" d="M0.124023 9.31V31.582C0.124023 37.828 6.43104 42.098 12.23 39.778L38.713 29.185C42.064 27.844 44.262 24.598 44.262 20.989V9.31C44.262 4.435 40.309 0.481995 35.434 0.481995H8.95102C4.07702 0.481995 0.124023 4.435 0.124023 9.31Z" fill="#FFE6A1"/>
<path id="Vector_2" d="M18.997 78.904L13.3641 118.338C12.0391 127.614 18.192 136.31 27.379 138.147L43.546 141.38C50.562 142.784 57.73 139.814 61.699 133.861L67.779 124.741C70.928 120.016 71.614 114.065 69.62 108.749L51.203 59.638C48.912 53.53 41.077 51.833 36.464 56.446L23.992 68.917C21.29 71.618 19.538 75.123 18.997 78.904Z" fill="#FFE6A1"/>
</g>
<g id="Group_2">
<path id="Vector_3" d="M63.2531 125.699L47.0861 122.466C37.8981 120.628 31.7461 111.932 33.0711 102.657L38.7041 63.224C39.2071 59.707 40.8471 56.495 43.2331 53.881C40.8371 53.76 38.3771 54.531 36.4641 56.443L23.9911 68.915C21.2901 71.616 19.5371 75.121 18.9981 78.902L13.3651 118.335C12.0401 127.612 18.1931 136.307 27.3801 138.144L43.5471 141.377C50.5621 142.779 57.7311 139.811 61.7001 133.858L67.0191 125.88C65.7671 125.905 64.5141 125.952 63.2531 125.699Z" fill="#FFD796"/>
<path id="Vector_4" d="M29.8851 22.122C24.0861 24.441 17.7791 20.171 17.7791 13.926V0.481995H8.95105C4.07605 0.481995 0.123047 4.435 0.123047 9.31V31.582C0.123047 37.828 6.43007 42.098 12.2291 39.778L38.7121 29.185C42.0631 27.844 44.261 24.599 44.261 20.989V16.372L29.8851 22.122Z" fill="#FFD796"/>
<path id="Vector_5" d="M66.3181 166.523L61.1001 176.959C59.8581 179.444 59.8581 182.369 61.1001 184.854L63.4811 189.618C65.8561 194.367 71.8551 195.961 76.2731 193.016L90.5041 183.529C92.9601 181.891 94.4351 179.135 94.4351 176.184V166.673C94.4351 160.648 88.5321 156.393 82.8161 158.299L71.4211 162.097C69.2011 162.836 67.3651 164.428 66.3181 166.523Z" fill="#FFD796"/>
</g>
</g>
</svg>
