<svg width="1920" height="1080" viewBox="0 0 1920 1080" fill="none" xmlns="http://www.w3.org/2000/svg">
<g id="Frame 1">
<rect width="1920" height="1080" fill="white"/>
<g id="Cookie">
<path id="Vector" d="M1183.63 532.36L1159.29 537.228C1151.19 538.848 1143.05 534.635 1139.7 527.086L1113.62 468.42C1111.42 463.453 1107.04 459.781 1101.77 458.462L1088.19 455.067C1080.33 453.102 1074.82 446.041 1074.82 437.939V343.803C1074.82 339.404 1073.17 335.163 1070.21 331.911L1037.42 295.925C1007.85 286.562 975.976 282.385 942.84 284.567C815.485 292.957 712.316 396.557 704.545 523.95C695.478 672.608 813.356 796 960.055 796C1099.98 796 1213.61 683.725 1215.95 544.359L1194.99 533.882C1191.48 532.125 1187.48 531.59 1183.63 532.36Z" fill="#FFE6A1"/>
<g id="Group">
<path id="Vector_2" d="M1039.5 716.551C1037.95 716.551 1036.42 716.462 1034.87 716.434C1025.17 727.315 1011.09 734.206 995.365 734.206C972.205 734.206 952.569 719.316 945.372 698.608C913.693 686.071 885.119 667.419 861.105 644.071C857.472 645.166 853.699 645.93 849.709 645.93C827.77 645.93 809.985 628.145 809.985 606.206C809.985 598.544 812.257 591.453 816.015 585.385C815.746 584.904 815.459 584.437 815.192 583.954C787.637 582.086 765.848 559.201 765.848 531.172C765.848 514.653 773.414 499.908 785.265 490.194C784.142 480.463 783.503 470.585 783.503 460.551C783.503 410.202 798.097 363.289 823.2 323.697C751.614 369.085 704.055 448.964 704.055 540C704.055 681.385 818.67 796 960.055 796C1051.09 796 1130.97 748.441 1176.36 676.855C1136.77 701.958 1089.85 716.551 1039.5 716.551Z" fill="#FFD796"/>
<path id="Vector_3" d="M902.676 495.862C914.864 495.862 924.745 485.981 924.745 473.793C924.745 461.605 914.864 451.724 902.676 451.724C890.488 451.724 880.607 461.605 880.607 473.793C880.607 485.981 890.488 495.862 902.676 495.862Z" fill="#FFD796"/>
<path id="Vector_4" d="M1136.61 641.517C1148.8 641.517 1158.68 631.636 1158.68 619.448C1158.68 607.26 1148.8 597.379 1136.61 597.379C1124.42 597.379 1114.54 607.26 1114.54 619.448C1114.54 631.636 1124.42 641.517 1136.61 641.517Z" fill="#FFD796"/>
<path id="Vector_5" d="M935.779 641.517C944.311 641.517 951.227 634.601 951.227 626.069C951.227 617.537 944.311 610.621 935.779 610.621C927.247 610.621 920.331 617.537 920.331 626.069C920.331 634.601 927.247 641.517 935.779 641.517Z" fill="#FFD796"/>
<path id="Vector_6" d="M1054.95 500.275C1063.48 500.275 1070.4 493.359 1070.4 484.827C1070.4 476.295 1063.48 469.379 1054.95 469.379C1046.42 469.379 1039.5 476.295 1039.5 484.827C1039.5 493.359 1046.42 500.275 1054.95 500.275Z" fill="#FFD796"/>
<path id="Vector_7" d="M993.159 363.448C1001.69 363.448 1008.61 356.532 1008.61 348C1008.61 339.468 1001.69 332.552 993.159 332.552C984.627 332.552 977.711 339.468 977.711 348C977.711 356.532 984.627 363.448 993.159 363.448Z" fill="#FFD796"/>
</g>
<g id="Group_2">
<path id="Vector_8" d="M947.209 511.386L937.004 528.395C930.904 538.561 936.36 551.731 947.861 554.606L978.237 562.2C987.697 564.565 997.283 558.814 999.647 549.354L1003.12 535.454C1003.83 532.642 1003.83 529.702 1003.12 526.89L999.448 512.193C997.163 503.05 988.099 497.314 978.858 499.162L958.886 503.156C954.008 504.133 949.769 507.121 947.209 511.386Z" fill="#B97850"/>
<path id="Vector_9" d="M998.162 620.673L987.519 638.411C982.228 647.23 985.564 658.687 994.762 663.286L1028.64 680.227C1038.75 685.279 1050.93 679.675 1053.67 668.718L1057.16 654.758L1061.24 638.439C1063.78 628.283 1056.97 618.16 1046.61 616.679L1015.8 612.277C1008.77 611.273 1001.82 614.582 998.162 620.673Z" fill="#B97850"/>
<path id="Vector_10" d="M812.413 515.358L799.424 537.007C795.256 543.954 796.351 552.846 802.079 558.575L822.521 579.018C829.962 586.459 842.218 585.78 848.792 577.563L866.317 555.656C869.759 551.354 870.995 545.691 869.658 540.345L865.661 524.357C864.006 517.737 858.686 512.665 851.996 511.326L831.014 507.13C823.698 505.666 816.252 508.96 812.413 515.358Z" fill="#B97850"/>
<path id="Vector_11" d="M884.291 372.019L874.275 388.713C868.464 398.398 873.116 410.974 883.831 414.546L905.566 421.791C911.91 423.905 918.904 422.254 923.633 417.526L935.332 405.827C939.717 401.442 941.48 395.077 939.976 389.061L936.916 376.822C934.951 368.961 927.889 363.447 919.787 363.447H899.429C893.229 363.448 887.482 366.702 884.291 372.019Z" fill="#B97850"/>
<path id="Vector_12" d="M1097.52 508.47L1087.3 518.689C1080.4 525.583 1080.4 536.762 1087.3 543.657L1092.3 548.658C1097.67 554.032 1105.88 555.364 1112.68 551.965L1141.6 537.507C1149 533.806 1152.84 525.462 1150.83 517.434L1149.52 512.195C1147.23 503.052 1138.17 497.316 1128.93 499.164L1106.54 503.642C1103.12 504.324 1099.98 506.005 1097.52 508.47Z" fill="#B97850"/>
<path id="Vector_13" d="M1031.87 382.456L1020.14 398.09C1015.84 403.832 1015.44 411.612 1019.13 417.767L1029.98 435.848C1035.16 444.492 1046.52 447.046 1054.91 441.455L1076.94 426.768C1085.37 421.146 1087.35 409.593 1081.27 401.485L1069.3 385.517C1067.14 382.644 1064.16 380.496 1060.75 379.361L1051.58 376.301C1044.37 373.896 1036.43 376.376 1031.87 382.456Z" fill="#B97850"/>
<path id="Vector_14" d="M880.789 661.385L869.261 675.795C861.86 685.046 865.491 698.816 876.491 703.217L891.976 709.411C896.186 711.095 900.881 711.095 905.09 709.411L922.468 702.459C932.88 698.295 936.822 685.604 930.602 676.273L927.617 671.796C925.912 669.239 923.571 667.173 920.823 665.798L902.473 656.623C895.024 652.9 885.989 654.885 880.789 661.385Z" fill="#B97850"/>
</g>
<g id="Group_3">
<path id="Vector_15" d="M844.428 576.921L823.986 556.479C818.258 550.751 817.162 541.858 821.331 534.912L834.32 513.263C835.428 511.417 836.892 509.918 838.511 508.63L831.015 507.132C823.699 505.669 816.252 508.963 812.413 515.36L799.424 537.009C795.256 543.956 796.351 552.848 802.079 558.577L822.521 579.019C829.418 585.916 840.396 585.75 847.206 579.158C846.23 578.511 845.29 577.784 844.428 576.921Z" fill="#A5694B"/>
<path id="Vector_16" d="M923.248 415.506L901.513 408.262C890.799 404.69 886.145 392.114 891.957 382.429L901.973 365.735C902.482 364.885 903.155 364.186 903.786 363.448H899.428C893.227 363.448 887.48 366.702 884.289 372.02L874.273 388.713C868.461 398.398 873.113 410.974 883.829 414.546L905.564 421.791C911.908 423.905 918.902 422.254 923.631 417.526L925.276 415.881C924.6 415.741 923.914 415.728 923.248 415.506Z" fill="#A5694B"/>
<path id="Vector_17" d="M994.988 557.124L964.612 549.53C953.11 546.654 947.654 533.485 953.755 523.319L963.96 506.31C965.175 504.285 966.789 502.576 968.65 501.205L958.886 503.158C954.009 504.133 949.768 507.122 947.209 511.388L937.004 528.397C930.904 538.563 936.36 551.733 947.861 554.608L978.237 562.202C984.636 563.802 991.036 561.63 995.275 557.167C995.179 557.143 995.084 557.148 994.988 557.124Z" fill="#A5694B"/>
<path id="Vector_18" d="M1046.47 434.321L1035.62 416.24C1031.93 410.085 1032.33 402.307 1036.64 396.563L1048.36 380.93C1049.64 379.217 1051.24 377.875 1052.97 376.762L1051.58 376.299C1044.37 373.896 1036.43 376.376 1031.87 382.455L1020.14 398.088C1015.84 403.831 1015.44 411.61 1019.13 417.765L1029.98 435.846C1035.15 444.461 1046.44 447.016 1054.82 441.499C1051.46 440.102 1048.49 437.692 1046.47 434.321Z" fill="#A5694B"/>
<path id="Vector_19" d="M1106.47 547.482C1099.57 540.587 1099.57 529.409 1106.47 522.514L1116.69 512.295C1119.15 509.831 1122.29 508.15 1125.71 507.467L1144.55 503.698C1140.52 499.866 1134.76 497.995 1128.93 499.163L1106.54 503.641C1103.12 504.325 1099.98 506.005 1097.52 508.469L1087.3 518.688C1080.4 525.583 1080.4 536.761 1087.3 543.656L1092.3 548.657C1097.34 553.698 1104.84 555.019 1111.36 552.38L1106.47 547.482Z" fill="#A5694B"/>
<path id="Vector_20" d="M1016.63 661.805C1007.44 657.206 1004.1 645.749 1009.39 636.93L1020.03 619.193C1021.43 616.868 1023.4 615.105 1025.58 613.676L1015.8 612.279C1008.77 611.274 1001.82 614.582 998.163 620.673L987.52 638.411C982.229 647.23 985.565 658.687 994.763 663.286L1028.65 680.227C1035.4 683.604 1043.02 682.146 1048.19 677.584L1016.63 661.805Z" fill="#A5694B"/>
<path id="Vector_21" d="M909.631 706.46L894.146 700.266C883.147 695.867 879.516 682.095 886.916 672.844L898.444 658.434C899.176 657.519 899.998 656.719 900.866 655.987C893.76 653.266 885.624 655.34 880.789 661.385L869.261 675.795C861.86 685.046 865.491 698.816 876.491 703.217L891.976 709.411C896.186 711.095 900.881 711.095 905.09 709.411L911.267 706.94C910.72 706.781 910.163 706.673 909.631 706.46Z" fill="#A5694B"/>
</g>
<path id="Vector_22" d="M774.665 645.922C773.342 645.922 771.992 645.621 770.726 644.991C766.364 642.81 764.596 637.509 766.778 633.147L775.606 615.492C777.788 611.13 783.076 609.38 787.45 611.544C791.812 613.726 793.58 619.026 791.398 623.388L782.57 641.043C781.023 644.137 777.907 645.922 774.665 645.922Z" fill="#C98850"/>
<path id="Vector_23" d="M933.572 760.689H924.744C919.869 760.689 915.916 756.741 915.916 751.861C915.916 746.982 919.869 743.033 924.744 743.033H933.572C938.447 743.033 942.4 746.981 942.4 751.861C942.4 756.741 938.447 760.689 933.572 760.689Z" fill="#925F4A"/>
<path id="Vector_24" d="M898.253 592.965C896.93 592.965 895.58 592.664 894.314 592.034C889.952 589.852 888.184 584.551 890.366 580.19L899.194 562.535C901.371 558.182 906.66 556.423 911.038 558.587C915.4 560.769 917.168 566.069 914.986 570.431L906.158 588.086C904.611 591.181 901.494 592.965 898.253 592.965Z" fill="#C98850"/>
<g id="Group_4">
<path id="Vector_25" d="M845.288 451.724C843.965 451.724 842.615 451.423 841.349 450.793L823.694 441.965C819.332 439.783 817.564 434.483 819.746 430.121C821.923 425.768 827.216 424 831.59 426.173L849.245 435C853.607 437.182 855.375 442.482 853.193 446.844C851.646 449.939 848.529 451.724 845.288 451.724Z" fill="#925F4A"/>
<path id="Vector_26" d="M951.228 328.137H933.573C928.698 328.137 924.745 324.189 924.745 319.309C924.745 314.429 928.698 310.481 933.573 310.481H951.228C956.103 310.481 960.056 314.429 960.056 319.309C960.056 324.189 956.103 328.137 951.228 328.137Z" fill="#925F4A"/>
</g>
<path id="Vector_27" d="M986.547 460.551C983.305 460.551 980.189 458.767 978.642 455.672L969.814 438.017C967.632 433.655 969.4 428.353 973.762 426.173C978.133 424 983.43 425.768 985.606 430.121L994.434 447.776C996.616 452.138 994.848 457.44 990.486 459.62C989.218 460.25 987.87 460.551 986.547 460.551Z" fill="#C98850"/>
<g id="Group_5">
<path id="Vector_28" d="M744.286 503.777C743.099 503.192 742.022 502.325 741.163 501.2C738.213 497.316 738.972 491.779 742.857 488.83L758.579 476.894C762.46 473.943 767.993 474.709 770.949 478.588C773.899 482.472 773.14 488.009 769.255 490.958L753.534 502.893C750.777 504.985 747.193 505.209 744.286 503.777Z" fill="#925F4A"/>
<path id="Vector_29" d="M1074.81 601.793C1072.55 601.793 1070.3 600.931 1068.57 599.207L1050.92 581.552C1047.47 578.104 1047.47 572.517 1050.92 569.069C1054.37 565.621 1059.95 565.621 1063.4 569.069L1081.06 586.724C1084.5 590.172 1084.5 595.759 1081.06 599.207C1079.33 600.931 1077.07 601.793 1074.81 601.793Z" fill="#925F4A"/>
</g>
<path id="Vector_30" d="M1092.47 690.069C1090.21 690.069 1087.95 689.207 1086.23 687.483C1082.78 684.035 1082.78 678.448 1086.23 675L1095.06 666.172C1098.5 662.724 1104.09 662.724 1107.54 666.172C1110.99 669.62 1110.99 675.207 1107.54 678.655L1098.71 687.483C1096.99 689.207 1094.73 690.069 1092.47 690.069Z" fill="#C98850"/>
</g>
<g id="Crumbs">
<g id="Group_6">
<path id="Vector_31" d="M1110.12 319.31V341.582C1110.12 347.828 1116.43 352.098 1122.23 349.778L1148.71 339.185C1152.06 337.844 1154.26 334.598 1154.26 330.989V319.31C1154.26 314.435 1150.31 310.482 1145.43 310.482H1118.95C1114.08 310.482 1110.12 314.435 1110.12 319.31Z" fill="#FFE6A1"/>
<path id="Vector_32" d="M1129 388.904L1123.36 428.338C1122.04 437.614 1128.19 446.31 1137.38 448.147L1153.55 451.38C1160.56 452.784 1167.73 449.814 1171.7 443.861L1177.78 434.741C1180.93 430.016 1181.61 424.065 1179.62 418.749L1161.2 369.638C1158.91 363.53 1151.08 361.833 1146.46 366.446L1133.99 378.917C1131.29 381.618 1129.54 385.123 1129 388.904Z" fill="#FFE6A1"/>
</g>
<g id="Group_7">
<path id="Vector_33" d="M1173.25 435.699L1157.09 432.466C1147.9 430.628 1141.75 421.932 1143.07 412.657L1148.7 373.224C1149.21 369.707 1150.85 366.495 1153.23 363.881C1150.84 363.76 1148.38 364.531 1146.46 366.443L1133.99 378.915C1131.29 381.616 1129.54 385.121 1129 388.902L1123.37 428.335C1122.04 437.612 1128.19 446.307 1137.38 448.144L1153.55 451.377C1160.56 452.779 1167.73 449.811 1171.7 443.858L1177.02 435.88C1175.77 435.905 1174.51 435.952 1173.25 435.699Z" fill="#FFD796"/>
<path id="Vector_34" d="M1139.89 332.122C1134.09 334.441 1127.78 330.171 1127.78 323.926V310.482H1118.95C1114.08 310.482 1110.12 314.435 1110.12 319.31V341.582C1110.12 347.828 1116.43 352.098 1122.23 349.778L1148.71 339.185C1152.06 337.844 1154.26 334.599 1154.26 330.989V326.372L1139.89 332.122Z" fill="#FFD796"/>
<path id="Vector_35" d="M1176.32 476.523L1171.1 486.959C1169.86 489.444 1169.86 492.369 1171.1 494.854L1173.48 499.618C1175.86 504.367 1181.86 505.961 1186.27 503.016L1200.5 493.529C1202.96 491.891 1204.44 489.135 1204.44 486.184V476.673C1204.44 470.648 1198.53 466.393 1192.82 468.299L1181.42 472.097C1179.2 472.836 1177.37 474.428 1176.32 476.523Z" fill="#FFD796"/>
</g>
</g>
</g>
</svg>
